<svg xmlns="http://www.w3.org/2000/svg" width="297" height="67" fill="none">
  <g clip-path="url(#a)">
    <path fill="#C24AC9" d="M0 7h297v37H0z"/>
    <path fill="#fff" d="M48.103 42.052C48.103 58.684 41.532 67 28.39 67H12.529V19.183h16.17c7.032 0 12.012 1.976 14.938 5.929 2.977 3.901 4.466 9.548 4.466 16.94ZM28.16 55.912c2.72 0 4.466-.95 5.236-2.849.821-1.95 1.232-5.185 1.232-9.702 0-4.569-.437-7.803-1.31-9.702-.82-1.9-2.617-2.849-5.39-2.849h-2.31v25.102h2.542ZM78.93 67H53.06V19.183H79.7l-.77 11.781H66.226v7.161h11.01v10.164h-11.01v7.931H79.7L78.93 67Zm3.104-33.418c0-4.569 1.334-8.239 4.004-11.011 2.67-2.772 6.314-4.158 10.934-4.158 4.671 0 9.445.462 14.322 1.386l-1.54 12.32c-5.082-1.18-8.573-1.771-10.472-1.771-2.413 0-3.62.975-3.62 2.926 0 .77.565 1.514 1.695 2.233 1.18.719 2.592 1.489 4.235 2.31 1.642.77 3.285 1.72 4.928 2.849 1.642 1.078 3.028 2.644 4.158 4.697 1.18 2.053 1.771 4.415 1.771 7.084 0 4.877-1.309 8.65-3.927 11.319-2.618 2.67-6.34 4.004-11.165 4.004-4.774 0-9.446-.744-14.014-2.233l.847-11.473c5.492 1.591 9.317 2.387 11.473 2.387 2.156 0 3.234-.95 3.234-2.849 0-.975-.59-1.874-1.771-2.695-1.13-.821-2.516-1.643-4.158-2.464a55.927 55.927 0 0 1-5.005-2.849c-1.643-1.078-3.055-2.644-4.235-4.697-1.13-2.053-1.694-4.492-1.694-7.315ZM130.91 67h-13.09V19.183h13.09V67Zm36.369-33.572c-4.928-1.489-8.547-2.233-10.857-2.233-2.259 0-3.825 1.001-4.697 3.003-.822 2.002-1.232 5.185-1.232 9.548 0 4.312.385 7.469 1.155 9.471.821 1.95 2.464 2.926 4.928 2.926.718 0 2.104-.205 4.158-.616v-5.852h-3.465v-9.086h14.707V67h-9.086l-1.232-2.464h-.308c-.873.719-1.566 1.258-2.079 1.617-1.438 1.078-3.465 1.617-6.083 1.617-10.729 0-16.093-8.11-16.093-24.332 0-8.11 1.411-14.296 4.235-18.557 2.823-4.312 7.571-6.468 14.245-6.468 5.338 0 9.933.821 13.783 2.464l-2.079 12.551ZM213.29 67h-12.628l-9.933-22.253h-.616V67h-11.704V19.183h13.013l9.471 22.946h.616V19.183h11.781V67Zm32.65 0h-25.872V19.183h26.642l-.77 11.781h-12.705v7.161h11.011v10.164h-11.011v7.931h13.475L245.94 67Zm37.984-32.648c0 2.875-.437 5.262-1.309 7.161-.873 1.9-2.233 3.619-4.081 5.159L284.925 67H270.68l-4.774-17.248h-1.771V67h-12.936V19.183h17.864c5.133 0 8.88 1.206 11.242 3.619 2.412 2.413 3.619 6.263 3.619 11.55Zm-17.787 7.315c1.334 0 2.284-.385 2.849-1.155.564-.77.847-2.156.847-4.158 0-2.053-.283-3.465-.847-4.235-.565-.821-1.489-1.232-2.772-1.232h-2.079v10.78h2.002Z"/>
  </g>
  <defs>
    <clipPath id="a">
      <path fill="#fff" d="M0 0h297v67H0z"/>
    </clipPath>
  </defs>
</svg>
