<svg xmlns="http://www.w3.org/2000/svg" width="336" height="91" fill="none">
  <g clip-path="url(#a)">
    <path stroke="#2582CB" stroke-width="2" d="M63 55h272v35H63z"/>
    <path fill="#fff" d="M49.014 53.052C49.014 69.684 42.444 78 29.302 78H13.44V30.183h16.17c7.033 0 12.012 1.976 14.938 5.929 2.978 3.901 4.466 9.548 4.466 16.94Zm-19.943 13.86c2.72 0 4.466-.95 5.236-2.849.822-1.95 1.232-5.185 1.232-9.702 0-4.569-.436-7.803-1.309-9.702-.821-1.9-2.618-2.849-5.39-2.849h-2.31v25.102h2.541ZM79.842 78H53.972V30.183h26.642l-.77 11.781H67.136v7.161h11.011v10.164h-11.01v7.931h13.474L79.843 78Zm39.832-47.817L111.589 78H91.261l-8.624-47.817H97.19l4.158 31.339h1.309l3.157-31.339h13.86ZM149.849 78h-25.872V30.183h26.642l-.77 11.781h-12.705v7.161h11.011v10.164h-11.011v7.931h13.475l-.77 10.78Zm29.591 0h-24.332V30.183h13.167v37.114h11.935L179.44 78Zm6.415-42.812c2.977-3.85 7.828-5.775 14.553-5.775 6.724 0 11.524 1.9 14.399 5.698 2.926 3.799 4.389 9.984 4.389 18.557 0 8.521-1.489 14.835-4.466 18.942-2.978 4.107-7.803 6.16-14.476 6.16-6.674 0-11.473-2.028-14.399-6.083-2.926-4.055-4.389-10.344-4.389-18.865 0-8.573 1.463-14.784 4.389-18.634Zm20.097 18.48c0-4.723-.385-7.905-1.155-9.548-.719-1.694-2.233-2.541-4.543-2.541-2.259 0-3.722.847-4.389 2.541-.668 1.643-1.001 4.8-1.001 9.471v1.848c0 4.98.359 8.265 1.078 9.856.77 1.54 2.284 2.31 4.543 2.31 2.31 0 3.798-.744 4.466-2.233.667-1.489 1.001-4.569 1.001-9.24v-2.464Zm34.964 8.701h-3.542V78h-12.936V30.183h15.631c5.493 0 9.574 1.258 12.243 3.773 2.67 2.515 4.004 6.648 4.004 12.397 0 5.75-1.257 9.856-3.773 12.32-2.515 2.464-6.391 3.696-11.627 3.696Zm1.463-10.395c.462-.873.693-2.438.693-4.697s-.256-3.85-.77-4.774c-.513-.924-1.54-1.386-3.08-1.386h-1.848v12.166h2.156c1.438 0 2.387-.436 2.849-1.309ZM286.028 78h-25.872V30.183h26.642l-.77 11.781h-12.705v7.161h11.011v10.164h-11.011v7.931h13.475l-.77 10.78Zm37.984-32.648c0 2.875-.436 5.262-1.309 7.161-.873 1.9-2.233 3.619-4.081 5.159L325.013 78h-14.245l-4.774-17.248h-1.771V78h-12.936V30.183h17.864c5.133 0 8.881 1.206 11.242 3.619 2.413 2.413 3.619 6.263 3.619 11.55Zm-17.787 7.315c1.335 0 2.284-.385 2.849-1.155.565-.77.847-2.156.847-4.158 0-2.053-.282-3.465-.847-4.235-.565-.821-1.489-1.232-2.772-1.232h-2.079v10.78h2.002Z"/>
  </g>
  <defs>
    <clipPath id="a">
      <path fill="#fff" d="M0 0h336v91H0z"/>
    </clipPath>
  </defs>
</svg>
