<svg xmlns="http://www.w3.org/2000/svg" width="110" height="55" fill="none">
  <path fill="#fff" d="m32.471 52.364 3.561-3.651 3.203 3.284c3.403 3.491 8.957 3.491 12.383 0l3.561-3.652 3.203 3.285c3.403 3.49 8.957 3.49 12.384 0l3.56-3.652 3.203 3.284c3.403 3.491 8.957 3.491 12.383 0l17.535-17.983A9.107 9.107 0 0 0 110 26.94a9.066 9.066 0 0 0-2.553-6.339L89.912 2.618c-3.403-3.49-8.957-3.49-12.384 0l-3.56 3.652-3.203-3.284c-3.403-3.491-8.957-3.491-12.383 0L54.82 6.637l-3.203-3.284c-3.403-3.49-8.957-3.49-12.384 0l-3.56 3.652L32.47 3.72C29.069.23 23.514.23 20.088 3.72L2.552 21.704C.85 23.449 0 25.746 0 28.043c0 2.296.851 4.593 2.553 6.339l17.534 17.983c3.427 3.514 8.98 3.514 12.384 0Zm18.364-1.17a7.503 7.503 0 0 1-10.794 0l-3.203-3.285 8.958-9.187 8.6 8.82-3.561 3.651ZM68.347 22.14a7.951 7.951 0 0 1 2.24 5.535c0 1.998-.74 4.02-2.24 5.535l-3.426 3.514-4.143-4.249a7.905 7.905 0 0 1-2.24-5.535c0-2.09.784-4.065 2.24-5.535l3.426-3.514 4.143 4.25Zm-3.36-5.053 8.958-9.186 13.527 13.872a7.905 7.905 0 0 1 2.239 5.535c0 2.09-.784 4.065-2.24 5.535L74.305 46.347l-8.6-8.82 3.427-3.513c3.404-3.491 3.404-9.187 0-12.7l-4.143-4.227Zm-4.993 3.491c-1.657 1.7-2.553 3.95-2.553 6.34 0 2.388.918 4.662 2.553 6.338l4.143 4.249-8.958 9.187-8.6-8.82 3.427-3.514c3.404-3.49 3.404-9.186 0-12.7l-4.143-4.25 8.958-9.186 8.6 8.82-3.427 3.536Zm-10.772 1.93a7.951 7.951 0 0 1 2.24 5.535c0 1.998-.74 4.019-2.24 5.535l-3.426 3.514-4.143-4.25a7.905 7.905 0 0 1-2.24-5.534c0-2.09.785-4.066 2.24-5.535l3.426-3.514 4.143 4.249Zm-8.375-1.54c-1.657 1.7-2.553 3.951-2.553 6.34 0 2.388.918 4.662 2.553 6.339l4.143 4.248-8.958 9.187L22.506 33.21c-2.978-3.055-2.978-8.015 0-11.07L35.674 8.636l8.6 8.819-3.427 3.514Zm29.112 29.858a7.503 7.503 0 0 1-10.794 0l-3.202-3.285 8.958-9.186 8.599 8.819-3.56 3.652Zm8.353-47.404a7.503 7.503 0 0 1 10.794 0l17.535 17.983a7.905 7.905 0 0 1 2.239 5.535c0 2.09-.784 4.065-2.239 5.535L89.106 50.458a7.503 7.503 0 0 1-10.794 0l-3.202-3.284 13.168-13.505c3.404-3.49 3.404-9.186 0-12.7L74.752 7.097l3.56-3.675Zm-19.147.368a7.503 7.503 0 0 1 10.794 0l3.203 3.284-8.958 9.187-8.6-8.82 3.561-3.651Zm-19.124.367a7.503 7.503 0 0 1 10.794 0l3.202 3.284-8.958 9.187-8.599-8.82 3.56-3.651ZM20.894 51.561 3.359 33.578c-2.978-3.055-2.978-8.016 0-11.07L20.894 4.524c1.433-1.47 3.359-2.296 5.397-2.296 2.038 0 3.963.804 5.397 2.296L34.89 7.81 21.722 21.313c-1.702 1.746-2.553 4.043-2.553 6.34 0 2.296.851 4.593 2.553 6.338l13.526 13.872-3.56 3.652c-1.433 1.47-3.36 2.297-5.397 2.297-2.038.045-3.964-.781-5.397-2.251Z"/>
</svg>
