<svg xmlns="http://www.w3.org/2000/svg" width="1285" height="654" fill="none">
  <path fill="#fff" d="M166.063 259.594c-8.013 8.091-17.583 14.432-28.708 19.022-11.125 4.59-23.262 6.885-36.41 6.885-13.148 0-25.285-2.256-36.41-6.769-11.048-4.512-20.656-10.853-28.825-19.022-8.169-8.246-14.51-17.893-19.022-28.941-4.512-11.125-6.769-23.223-6.769-36.293 0-13.149 2.257-25.246 6.769-36.294 4.512-11.125 10.853-20.772 19.022-28.941 8.169-8.169 17.777-14.51 28.825-19.022 11.125-4.513 23.262-6.769 36.41-6.769 13.07 0 25.168 2.295 36.293 6.885 11.126 4.513 20.695 10.815 28.708 18.906l-14.354 14.587c-6.224-6.924-13.692-12.331-22.406-16.221-8.714-3.968-18.244-5.952-28.591-5.952-10.036 0-19.294 1.829-27.775 5.485-8.48 3.579-15.87 8.675-22.172 15.288-6.225 6.535-11.087 14.237-14.588 23.106-3.423 8.869-5.135 18.516-5.135 28.942 0 10.503 1.712 20.189 5.135 29.058 3.501 8.791 8.363 16.493 14.587 23.106 6.302 6.535 13.693 11.631 22.173 15.288 8.48 3.579 17.739 5.368 27.775 5.368 10.347 0 19.877-1.945 28.591-5.835 8.714-3.968 16.182-9.414 22.406-16.338l14.471 14.471Zm129.928 25.907c-13.148 0-25.285-2.256-36.41-6.769-11.047-4.512-20.656-10.853-28.825-19.022-8.169-8.246-14.509-17.893-19.022-28.941-4.512-11.125-6.768-23.223-6.768-36.293 0-13.149 2.256-25.246 6.768-36.294 4.513-11.125 10.853-20.772 19.022-28.941 8.169-8.169 17.778-14.51 28.825-19.022 11.125-4.513 23.262-6.769 36.41-6.769 13.148 0 25.246 2.256 36.294 6.769 11.047 4.512 20.655 10.853 28.824 19.022 8.169 8.169 14.51 17.816 19.022 28.941 4.513 11.048 6.769 23.145 6.769 36.294 0 13.07-2.256 25.168-6.769 36.293-4.512 11.048-10.853 20.695-19.022 28.941-8.169 8.169-17.777 14.51-28.824 19.022-11.048 4.513-23.146 6.769-36.294 6.769Zm0-18.205c10.036 0 19.294-1.828 27.775-5.485 8.558-3.657 15.987-8.752 22.289-15.288 6.302-6.613 11.164-14.315 14.588-23.106 3.501-8.869 5.251-18.516 5.251-28.941 0-10.426-1.75-20.073-5.251-28.942-3.424-8.869-8.286-16.571-14.588-23.106-6.302-6.613-13.731-11.709-22.289-15.288-8.481-3.656-17.739-5.485-27.775-5.485-10.036 0-19.333 1.829-27.891 5.485-8.48 3.579-15.871 8.675-22.173 15.288-6.301 6.535-11.203 14.237-14.704 23.106-3.501 8.869-5.251 18.516-5.251 28.942 0 10.425 1.75 20.072 5.251 28.941 3.501 8.869 8.403 16.61 14.704 23.223 6.302 6.535 13.693 11.631 22.173 15.288 8.558 3.579 17.855 5.368 27.891 5.368ZM558.256 282h-22.873l-41.778-71.187h-41.312V282h-20.539V106.951h60.567c12.526 0 23.301 2.101 32.326 6.302 9.025 4.201 15.988 10.192 20.889 17.972 4.902 7.702 7.352 16.921 7.352 27.657 0 12.526-3.345 23.029-10.036 31.509-6.613 8.48-15.91 14.354-27.891 17.622L558.256 282Zm-105.963-89.392h38.745c12.681 0 22.639-2.995 29.875-8.985 7.313-5.991 10.969-14.238 10.969-24.741s-3.617-18.749-10.853-24.74c-7.235-5.99-17.232-8.986-29.991-8.986h-38.745v67.452ZM754.12 282h-21.706L622.366 139.043V282h-20.539V106.951h21.706l110.048 142.957V106.951h20.539V282Zm53.023 0V106.951H914.39v18.205h-86.708v58.817h81.923v18.205h-81.923v61.617h87.875V282H807.143Zm286.777 0h-22.88l-41.78-71.187h-41.308V282h-20.539V106.951h60.567c12.53 0 23.3 2.101 32.33 6.302 9.02 4.201 15.98 10.192 20.88 17.972 4.91 7.702 7.36 16.921 7.36 27.657 0 12.526-3.35 23.029-10.04 31.509-6.61 8.48-15.91 14.354-27.89 17.622l43.3 73.987Zm-105.968-89.392h38.748c12.68 0 22.64-2.995 29.87-8.985 7.31-5.991 10.97-14.238 10.97-24.741s-3.62-18.749-10.85-24.74c-7.24-5.99-17.23-8.986-29.99-8.986h-38.748v67.452ZM192.088 546V370.951h53.915c14.316 0 26.569 2.217 36.761 6.652 10.269 4.435 18.127 10.775 23.573 19.022 5.446 8.247 8.169 18.127 8.169 29.642 0 11.436-2.723 21.317-8.169 29.641-5.446 8.325-13.304 14.743-23.573 19.256-10.192 4.434-22.445 6.651-36.761 6.651h-33.376V546h-20.539Zm20.539-82.39h31.626c15.715 0 27.852-3.306 36.41-9.919 8.558-6.613 12.837-15.754 12.837-27.424s-4.279-20.773-12.837-27.308-20.695-9.803-36.41-9.803h-31.626v74.454Zm228.423 85.891c-13.148 0-25.285-2.256-36.41-6.769-11.048-4.512-20.656-10.853-28.825-19.022-8.169-8.246-14.51-17.893-19.022-28.941-4.512-11.125-6.769-23.223-6.769-36.293 0-13.149 2.257-25.246 6.769-36.294 4.512-11.125 10.853-20.772 19.022-28.941 8.169-8.169 17.777-14.51 28.825-19.022 11.125-4.513 23.262-6.769 36.41-6.769 13.148 0 25.246 2.256 36.293 6.769 11.048 4.512 20.656 10.853 28.825 19.022 8.169 8.169 14.51 17.816 19.022 28.941 4.512 11.048 6.769 23.145 6.769 36.294 0 13.07-2.257 25.168-6.769 36.293-4.512 11.048-10.853 20.695-19.022 28.941-8.169 8.169-17.777 14.51-28.825 19.022-11.047 4.513-23.145 6.769-36.293 6.769Zm0-18.205c10.036 0 19.294-1.828 27.774-5.485 8.558-3.657 15.988-8.752 22.29-15.288 6.302-6.613 11.164-14.315 14.587-23.106 3.501-8.869 5.252-18.516 5.252-28.941 0-10.426-1.751-20.073-5.252-28.942-3.423-8.869-8.285-16.571-14.587-23.106-6.302-6.613-13.732-11.709-22.29-15.288-8.48-3.656-17.738-5.485-27.774-5.485-10.036 0-19.333 1.829-27.891 5.485-8.48 3.579-15.871 8.675-22.173 15.288-6.302 6.535-11.203 14.237-14.704 23.106-3.501 8.869-5.252 18.516-5.252 28.942 0 10.425 1.751 20.072 5.252 28.941s8.402 16.61 14.704 23.223c6.302 6.535 13.693 11.631 22.173 15.288 8.558 3.579 17.855 5.368 27.891 5.368Zm283.738-7.702c-8.014 8.091-17.583 14.432-28.708 19.022-11.126 4.59-23.262 6.885-36.411 6.885-13.148 0-25.284-2.256-36.41-6.769-11.047-4.512-20.655-10.853-28.824-19.022-8.169-8.246-14.51-17.893-19.022-28.941-4.513-11.125-6.769-23.223-6.769-36.293 0-13.149 2.256-25.246 6.769-36.294 4.512-11.125 10.853-20.772 19.022-28.941 8.169-8.169 17.777-14.51 28.824-19.022 11.126-4.513 23.262-6.769 36.41-6.769 13.071 0 25.169 2.295 36.294 6.885 11.125 4.513 20.695 10.815 28.708 18.906l-14.354 14.587c-6.224-6.924-13.693-12.331-22.406-16.221-8.714-3.968-18.244-5.952-28.592-5.952-10.036 0-19.294 1.829-27.774 5.485-8.48 3.579-15.871 8.675-22.173 15.288-6.224 6.535-11.086 14.237-14.587 23.106-3.423 8.869-5.135 18.516-5.135 28.942 0 10.503 1.712 20.189 5.135 29.058 3.501 8.791 8.363 16.493 14.587 23.106 6.302 6.535 13.693 11.631 22.173 15.288 8.48 3.579 17.738 5.368 27.774 5.368 10.348 0 19.878-1.945 28.592-5.835 8.713-3.968 16.182-9.414 22.406-16.338l14.471 14.471ZM791.348 546h-20.656V370.951h20.54v105.496a370.974 370.974 0 0 1 7.235-10.269c2.412-3.268 4.512-6.03 6.302-8.286l69.086-86.941h24.506l-63.834 80.173L911.548 546h-26.724l-63.484-78.305-29.992 37.81V546Zm156.886 0V370.951h107.246v18.205h-86.707v58.817h81.927v18.205h-81.927v61.617h87.877V546H948.234Zm223.056 0h-20.54V389.156h-56.25v-18.205h133.04v18.205h-56.25V546Z"/>
  <path stroke="#28E8C5" stroke-width="20" d="M1161 286V0M98 654V368M90 644h1081M87 10h1084"/>
</svg>
